<svg width="64" height="64" viewBox="0 0 64 64" fill="none" xmlns="http://www.w3.org/2000/svg">
<rect x="11" y="11" width="42" height="42" rx="3" fill="#EFF3F5"/>
<path fill-rule="evenodd" clip-rule="evenodd" d="M25 22.92C26.6146 22.92 27.9235 21.5948 27.9235 19.96C27.9235 18.3252 26.6146 17 25 17C23.3854 17 22.0765 18.3252 22.0765 19.96C22.0765 21.5948 23.3854 22.92 25 22.92ZM18.0032 30.281C18.3592 26.6864 21.3559 23.88 25 23.88C28.6441 23.88 31.6407 26.6864 31.9968 30.281C32.036 30.6767 31.7138 31 31.321 31H18.679C18.2862 31 17.9641 30.6767 18.0032 30.281Z" fill="#C9CDD2"/>
<rect x="18" y="36" width="29" height="3" fill="#C9CDD2"/>
<rect x="18" y="43" width="23" height="3" fill="#C9CDD2"/>
</svg>
