<svg width="64" height="64" viewBox="0 0 64 64" fill="none" xmlns="http://www.w3.org/2000/svg">
<path d="M12 24.7514C12 24.0716 12.3184 23.4345 12.8531 23.0447L30.8531 9.91969C31.5417 9.41756 32.4583 9.41756 33.1469 9.91969L51.1469 23.0447C51.6816 23.4345 52 24.0716 52 24.7514V48.6667C52 50.9679 50.2091 52.8334 48 52.8334H16C13.7909 52.8334 12 50.9679 12 48.6667V24.7514Z" fill="#E7EAEE"/>
<path d="M52 25.2937C52 24.2739 51.5224 23.3183 50.7204 22.7336L33.72 10.3377C32.687 9.58452 31.3122 9.58453 30.2792 10.3377L13.2796 22.7336C12.4776 23.3183 12 24.2739 12 25.2936V31.9999L31.3842 17.8654C31.7537 17.5959 32.2455 17.5959 32.615 17.8654L52 31.9999V25.2937Z" fill="#246FF8"/>
<path d="M26 37.2084C26 35.4825 27.3431 34.0834 29 34.0834H35C36.6569 34.0834 38 35.4825 38 37.2084V47.625C38 48.2003 37.5523 48.6667 37 48.6667H27C26.4477 48.6667 26 48.2003 26 47.625V37.2084Z" fill="#9EA4AA"/>
</svg>
