<svg width="64" height="64" viewBox="0 0 64 64" fill="none" xmlns="http://www.w3.org/2000/svg">
<path fill-rule="evenodd" clip-rule="evenodd" d="M14.0902 47.3719C28.8325 37.5372 41.0782 36.3328 47.5613 38.6117L46.2348 42.3854C41.3943 40.6838 30.4871 41.2418 16.31 50.6994L14.0902 47.3719Z" fill="#75ADFF"/>
<path fill-rule="evenodd" clip-rule="evenodd" d="M25.1986 25.7327C25.134 21.5793 23.0669 18.2494 21.4444 17.0975L23.7601 13.8359C26.5732 15.8332 29.1168 20.4419 29.1981 25.6705C29.2824 31.0941 26.7412 37.1238 19.5073 41.9323L17.293 38.6011C23.4825 34.4868 25.2601 29.6911 25.1986 25.7327Z" fill="#75ADFF"/>
<path d="M36.1803 43.4256C37.4082 44.6534 36.9661 46.7385 35.3456 47.3624L12.1274 56.3017C10.186 57.0492 8.27789 55.1411 9.02537 53.1996L17.9647 29.9815C18.5886 28.361 20.6736 27.9189 21.9015 29.1467L36.1803 43.4256Z" fill="#246FF8"/>
<ellipse cx="43.2002" cy="13.3333" rx="2.13334" ry="2.13333" fill="#FFC428"/>
<circle cx="17.6001" cy="22.6667" r="2.13333" fill="#FFC428"/>
<circle cx="36" cy="18.4001" r="2.13333" fill="#FF4B3E"/>
<ellipse cx="28" cy="10.4001" rx="2.13333" ry="2.13333" fill="#5CC566"/>
<ellipse cx="53.6001" cy="29.0667" rx="2.13333" ry="2.13333" fill="#5CC566"/>
<circle cx="46.3999" cy="33.6" r="2.13333" fill="#FFC428"/>
<path fill-rule="evenodd" clip-rule="evenodd" d="M46.1226 22.7574C47.1932 23.0043 48.2691 22.3676 48.5679 21.3104L49.6195 17.5894L53.4687 18.6773L52.4172 22.3982C51.5382 25.5084 48.3731 27.3814 45.2238 26.6551C44.1532 26.4082 43.0773 27.045 42.7785 28.1022C41.8995 31.2124 38.7344 33.0854 35.5851 32.3591L31.8173 31.4902L32.7162 27.5925L36.484 28.4614C37.5545 28.7083 38.6304 28.0716 38.9292 27.0144C39.8082 23.9042 42.9733 22.0311 46.1226 22.7574Z" fill="#75ADFF"/>
</svg>
